<svg width="24" height="22" viewBox="0 0 24 22" fill="none" xmlns="http://www.w3.org/2000/svg">
<path d="M2.001 8.352C2.001 10.225 2.85 11.295 3.684 12.295C3.715 13.295 3.769 13.963 3.351 15.478C5.099 14.92 5.389 14.7 6.359 14.104C7.359 14.348 7.833 14.485 8.97 14.595C8.876 15.303 8.889 15.87 9.025 16.618C8.273 16.558 7.497 16.44 6.695 16.244C5.298 17.101 2.214 17.969 0.0459991 18.359C0.856999 16.764 1.754 14.574 1.707 13.047C0.616999 11.742 0.00199906 10.063 0.00199906 8.352C0.00099906 3.526 4.72 0 10.001 0C15.238 0 19.978 3.484 19.999 8.318C19.355 8.143 18.677 8.041 17.978 8.004C17.749 4.664 14.265 2 10.001 2C5.59 2 2.001 4.85 2.001 8.352V8.352ZM22.884 18.521C22.855 19.522 23.442 20.956 23.972 22C22.553 21.742 20.534 21.176 19.62 20.615C18.848 20.803 18.106 20.889 17.407 20.889C13.542 20.889 10.909 18.246 10.909 15.447C10.909 12.273 14.019 9.98 17.455 9.98C20.912 9.98 24.001 12.289 24.001 15.447C24.001 16.567 23.598 17.668 22.884 18.521V18.521ZM15.321 15.5C15.321 15.047 14.953 14.68 14.501 14.68C14.049 14.68 13.681 15.047 13.681 15.5C13.681 15.953 14.049 16.32 14.501 16.32C14.953 16.32 15.321 15.953 15.321 15.5ZM18.321 15.5C18.321 15.047 17.953 14.68 17.501 14.68C17.049 14.68 16.681 15.047 16.681 15.5C16.681 15.953 17.049 16.32 17.501 16.32C17.953 16.32 18.321 15.953 18.321 15.5ZM21.321 15.5C21.321 15.047 20.953 14.68 20.501 14.68C20.049 14.68 19.681 15.047 19.681 15.5C19.681 15.953 20.049 16.32 20.501 16.32C20.953 16.32 21.321 15.953 21.321 15.5Z" fill="#C4C4C4"/>
</svg>
